<svg width="22" height="22" viewBox="0 0 22 22" fill="none" xmlns="http://www.w3.org/2000/svg">
<path fill-rule="evenodd" clip-rule="evenodd" d="M9.49819 16.9964C5.35705 16.9964 2 13.6393 2 9.49819C2 5.35705 5.35705 2 9.49819 2C13.6393 2 16.9964 5.35705 16.9964 9.49819C16.9964 11.2975 16.3626 12.9488 15.3061 14.241L19.7782 18.706C19.9202 18.8468 20 19.0384 20 19.2384C20 19.4383 19.9202 19.6299 19.7782 19.7707C19.638 19.9138 19.4462 19.9948 19.2459 19.9957C19.0465 19.9968 18.855 19.9186 18.7135 19.7782L14.2412 15.3059C12.949 16.3625 11.2976 16.9964 9.49819 16.9964ZM9.49819 3.49964C6.18528 3.49964 3.49964 6.18528 3.49964 9.49819C3.49964 12.8111 6.18528 15.4967 9.49819 15.4967C12.8111 15.4967 15.4967 12.8111 15.4967 9.49819C15.4967 7.90727 14.8648 6.38152 13.7398 5.25657C12.6149 4.13163 11.0891 3.49964 9.49819 3.49964Z" fill="#2C3744"/>
</svg>
