<svg width="142" height="70" viewBox="0 0 142 70" fill="none" xmlns="http://www.w3.org/2000/svg">
<path d="M69.5638 3.93537C83.1155 3.93537 94.508 12.5321 98.7117 24.5865L100.516 23.9848L102.311 23.3926C97.6369 9.6665 84.795 0 69.5638 0C54.4474 0 41.5003 9.79066 36.8164 23.3926L40.2909 24.7011C44.6098 12.6467 56.1269 3.93537 69.5638 3.93537Z" fill="#297CBB"/>
<path fill-rule="evenodd" clip-rule="evenodd" d="M141.642 37.2333L141.882 36.9945L141.997 41.2832C142.122 42.3531 138.158 43.91 135.884 42.2384C133.724 40.691 133.724 38.8953 133.724 36.3927H123.291C124.491 39.3729 127.965 39.0195 128.925 37.5867L133.244 38.3031C131.679 43.1936 127.361 43.91 123.406 42.4772C121.247 41.522 120.047 40.328 119.088 38.1789V43.0694H114.049V33.6417C113.924 31.6167 110.69 31.7409 110.69 33.7659V43.079L105.651 43.1936H102.292L102.177 40.2134C102.177 39.749 101.976 40.1141 101.639 40.727C101.111 41.6897 100.247 43.2637 99.2973 43.1936C95.6979 43.4324 92.9434 41.6462 91.504 38.5419V43.079H86.35V38.5419C84.795 41.5221 80.9561 43.4324 77.117 42.4772L76.5219 42.2384C76.5219 42.2384 76.6467 47.492 76.6467 48.9248H71.608V35.3133C71.7328 28.99 78.6909 25.1692 83.8451 28.99C85.0446 29.9452 85.6395 30.7762 86.3597 32.0943V21.3485H91.5137V32.0943C93.0779 28.6365 96.3122 27.0796 100.152 27.6814C102.915 28.3978 104.595 29.8306 105.67 32.4573C107.11 28.2831 111.073 26.6115 115.268 28.0443C117.302 28.9995 118.387 30.3081 119.107 32.4573C121.026 28.2831 125.105 26.6115 129.299 28.0443C131.459 28.9995 132.774 30.3081 133.733 32.4573V24.4624H138.647V27.5667H141.766V32.2185H138.647C138.647 32.61 138.632 33.0009 138.617 33.3895C138.572 34.5465 138.528 35.6832 138.887 36.7557C139.367 37.7108 140.682 37.9496 141.642 37.2333ZM76.282 35.2082C76.282 36.9944 77.7216 38.4272 79.5165 38.4272C81.3208 38.4272 82.7605 36.9944 82.7508 35.2082C82.7508 33.422 81.3111 31.9892 79.5165 31.9892C77.7216 31.9892 76.282 33.4125 76.282 35.2082ZM95.2375 35.2082C95.2375 36.9944 96.6769 38.4272 98.4718 38.4272C100.267 38.4272 101.706 36.9944 101.706 35.2082C101.706 33.422 100.267 31.9892 98.4718 31.9892C96.6769 31.9892 95.2375 33.4125 95.2375 35.2082ZM123.301 34.253C124.136 31.1487 128.58 31.0341 129.539 34.253H123.301Z" fill="#297CBB"/>
<path fill-rule="evenodd" clip-rule="evenodd" d="M42.4599 37.835L46.654 38.4272C46.654 39.5066 44.3699 43.5661 38.4865 42.9739C35.732 42.2575 33.9371 40.7006 32.8527 38.198V43.0885H27.8139V33.7754C27.6988 31.6263 24.5796 31.7504 24.3397 33.7754V43.0885H19.4256V37.9592C17.986 41.0635 15.8266 42.611 12.3522 42.8498C9.10819 42.7256 6.59361 41.1782 5.15397 38.3126V43.0885H0V21.358H5.15397V32.1039C6.23838 29.8305 7.79335 28.5219 10.1926 27.8055C14.2716 26.8503 17.7461 28.6366 19.4256 32.4573C20.3854 29.1237 23.0248 27.5667 26.3839 27.5667C29.6279 27.6814 31.9026 29.353 32.8624 32.4573C33.9374 29.8306 35.8568 28.2831 38.7361 27.6814C42.5752 27.0892 45.8192 28.8754 47.374 32.4573V21.358H52.5279V27.5667H57.5666V36.9945C57.5666 38.7902 60.0812 38.7902 60.0812 36.9945V27.5667H65.1295V44.1584C65.1295 45.9446 64.5346 47.2627 63.3349 48.5713C61.7799 49.9946 60.4556 50.3575 58.4208 50.5963C55.9062 50.8351 53.9868 50.1187 52.0671 48.5713L55.0617 44.636C56.3765 45.9446 58.9006 45.9446 59.7356 44.0342C59.9755 43.3178 59.9755 42.4868 59.9755 41.7704C57.5763 44.2826 53.3725 43.0885 52.5374 39.7454V43.0885H47.3835V36.4022H37.066C37.9011 38.5514 40.3006 39.3824 42.4599 37.835ZM8.87777 35.0841C8.87777 36.8798 10.3174 38.4272 12.1123 38.4272C13.9069 38.4272 15.3466 36.8798 15.3466 35.0841C15.3466 33.2979 13.9069 31.8651 12.1123 31.8651C10.3174 31.8651 8.87777 33.2979 8.87777 35.0841ZM43.2949 34.4918H36.9412C37.9011 31.2729 42.2105 31.2729 43.2949 34.4918Z" fill="#297CBB"/>
<path d="M40.3006 44.7601C44.6195 56.5758 56.0118 64.9337 69.5638 64.9337L69.5732 68.8691C54.3418 68.8691 41.5001 59.4414 36.8261 45.9541L38.621 45.3523L40.3006 44.7601Z" fill="#297CBB"/>
<path d="M103.849 61.969C102.769 61.969 102.297 61.1128 102.297 59.9117C102.297 58.6393 102.826 57.8782 103.849 57.8782C104.917 57.8782 105.4 58.7344 105.4 59.9117C105.4 61.2079 104.871 61.969 103.849 61.969Z" fill="#297CBB"/>
<path d="M109.476 61.2079C109.856 61.7192 110.407 61.9928 110.913 61.9928C111.982 61.9928 112.418 61.315 112.418 59.9117C112.418 58.5798 111.867 57.8782 110.959 57.8782C110.373 57.8782 109.81 58.2588 109.476 58.6749V61.2079Z" fill="#297CBB"/>
<path fill-rule="evenodd" clip-rule="evenodd" d="M83.8405 49.1892H119.753V70H83.8405L78.5733 65.045V54.3919L83.8405 49.1892ZM89.698 63.2295C91.7203 63.2295 92.9036 62.0998 92.9036 60.6609C92.9036 59.0079 91.6167 58.4609 90.0077 57.9733C88.6177 57.5452 88.0085 57.2717 88.0085 56.4512C88.0085 55.809 88.5484 55.4523 89.4904 55.4523C90.4098 55.4523 91.1342 55.8566 91.6399 56.7366L92.6854 55.9874C92.1682 54.9528 91.1799 54.0966 89.5025 54.0966C87.7783 54.0966 86.5945 55.0836 86.5945 56.582C86.5945 58.2588 87.9161 58.7225 89.5598 59.222C90.9618 59.6501 91.4906 60.0068 91.4906 60.7679C91.4906 61.5647 90.7893 61.9095 89.7553 61.9095C88.6982 61.9095 87.9161 61.4101 87.4108 60.3755L86.2728 60.9939C86.8132 62.3257 88.0085 63.2295 89.698 63.2295ZM95.7173 63.0631V58.6987C96.2345 58.2112 96.7518 57.8782 97.3721 57.8782C97.9929 57.8782 98.2804 58.1993 98.2804 58.9009V63.0631H99.705V58.5322C99.705 57.2836 99.0158 56.6295 97.9471 56.6295C96.8438 56.6295 96.1083 57.1766 95.7173 57.6047V54.2631H94.2926V63.0631H95.7173ZM106.825 59.9117C106.825 62.2188 105.331 63.1939 103.849 63.1939C102.366 63.1939 100.872 62.2188 100.872 59.9117C100.872 57.5809 102.355 56.6295 103.849 56.6295C105.331 56.6295 106.825 57.5809 106.825 59.9117ZM109.476 65.4414V62.3614C109.925 62.8847 110.568 63.1582 111.223 63.1582C112.786 63.1582 113.832 62.0879 113.832 59.8998C113.832 57.7117 112.809 56.6295 111.419 56.6295C110.511 56.6295 109.878 57.0814 109.476 57.5809V56.7485H108.063V65.4414H109.476Z" fill="#297CBB"/>
</svg>
